<?xml version="1.0" encoding="UTF-8"?>
<svg width="1998pt" height="601pt" version="1.1" viewBox="0 0 1998 601" xmlns="http://www.w3.org/2000/svg">
<g fill="#004580">
<path d="m1713.3 0h6.543c7.7891 4.9492 10.746 14.25 15.035 21.953 59.086 110.74 118.26 221.43 177.42 332.14 28.59 53.934 57.766 107.58 86.062 161.66v1.0547c-1.6836 3.0469-3.0273 7.8359-7.375 7.4102-28.738 0.089844-57.52 0.14844-86.242-0.027344-6.8945 0.27734-8.7539-7.25-11.359-12.098-5.2266-9.9297-10.863-19.609-15.578-29.801-8.0664-13.691-14.418-28.277-22.484-41.953-6.1953-13.531-14.203-26.082-20.438-39.586-3.8516-8.1719-8.918-15.699-12.738-23.883-5.6641-12.156-13-23.418-18.504-35.66-8.3008-14.379-15.168-29.508-23.465-43.891-5.8281-12.887-13.586-24.762-19.473-37.621-4.1133-8.8438-9.6172-16.973-13.703-25.844-5.3281-11.512-12.414-22.102-17.492-33.727-2.5352-4.4961-4.2773-10.75-9.6055-12.551-3.4258-0.27734-8.2266-1.1406-10.16 2.5352-8.957 14.395-15.516 30.105-24.152 44.691-6.1797 13.52-14.246 26.066-20.453 39.57-3.6875 7.8477-8.5352 15.082-12.254 22.902-2.8242 5.875-5.6953 11.73-9.0312 17.34-5.9023 9.957-10.117 20.809-16.09 30.723-5.2109 8.6992-8.9141 18.203-14.113 26.902-5.4609 8.9766-9.2656 18.816-14.637 27.824-6.1484 10.25-10.484 21.453-16.648 31.691-5.1953 8.6992-8.8828 18.188-14.098 26.887-5.4609 8.9766-9.2656 18.816-14.637 27.824-5.7852 9.6484-10.031 20.105-15.477 29.918-1.8594 2.9141-3.6445 6.5742-7.3047 7.4219-5.6211 0.99609-11.375 0.41016-17.055 0.48438-21.973-0.015625-43.949-0.085938-65.922 0.074219-3.9805-0.074219-8.7539-0.015626-11.477-3.4414-0.84766-3.7344-0.54297-7.7773 1.4922-11.07 89.637-168.04 179.46-335.97 269.18-503.98 1.3789-2.5742 3.8516-4.2734 6.2383-5.8711z"/>
<path d="m0 80.703c6.1484-6.4844 15.473-4.3633 23.422-4.582 80.035 0.042968 160.05 0 240.09 0.015625 23.539-0.79297 47.371 2.7656 69.465 11.012 37.184 13.34 69.184 43.301 81.219 81.406 5.3281 14.453 6.4844 30.008 7.5547 45.238-0.98047 16.312-2.957 32.891-9.1211 48.164-7.3945 17.879-18.066 35.102-33.977 46.598-3.8359 3.7031-9.7812 5.2734-12.578 9.9297 21.172 7.6445 39.383 22.125 53.113 39.801 22.574 29.523 28.855 68.594 25.02 104.84-2.0195 23.898-8.8867 47.621-21.359 68.199-8.3281 12.797-18.605 24.527-31.078 33.43-27.23 20.211-60.93 29.523-94.207 33.359-6.8203 0.92578-13.82 0.42578-20.512 2.3008h-270.95c-2.2539-1.8164-4.3477-3.8359-6.1055-6.1523v-513.56m89.828 75.082c-2.5625 3.1328-1.8594 7.4102-2.0039 11.16 0.23047 38.91-0.35156 77.832 0.28906 116.73 2.3867 2.9766 6.0469 5.0117 9.9258 4.8047 51.738 0.042969 103.49-0.058593 155.22 0.058594 7.2031 0.30859 14.289-1.1992 21.391-2.1953 16.102-2.3438 32.191-8.7148 43.422-20.867 7.6836-7.6445 11.184-18.25 13.773-28.5 0.62891-8.3008 3.2812-16.637 0.96875-24.926-1.1133-14.027-6.8086-27.66-16.309-38.074-13.309-12.066-31.125-17.836-48.691-19.961-5.6211-0.55469-11.332 0.28125-16.91-0.83203-6.9375-1.4961-14.039-0.77734-21.066-0.86328-42.469-0.046875-84.938 0.042969-127.39-0.058594-4.4219 0-8.8438 1.2148-12.621 3.5273m2.8828 210.79c-1.7266 0.54297-3.3789 1.5664-3.9062 3.4258-3.1211 6.0352-2.4766 12.977-2.4453 19.535 0.058594 40.039-0.042969 80.078 0.042969 120.11 0.085937 5.7266 3.2773 13.84 10.176 13.137 54.664 0.027344 109.34-0.03125 164 0.015625 5.4922 0.1875 10.98 0 16.398-0.99609 19.234-1.6406 39.145-5.4922 55.352-16.578 13.027-9.2266 20.188-24.484 22.969-39.848 3.6875-17.734 2.3125-36.289-2.8398-53.598-4.6133-13.355-13.719-25.523-26.484-31.996-16.863-9.2852-36.215-12.066-55.117-13.68-57.605 0.015625-115.21 0.015625-172.82 0-1.7852-0.042969-3.5703 0.11719-5.3281 0.46875z"/>
<path d="m533.45 76.547c6.0898-0.99609 12.312-0.29297 18.461-0.41016 84.91-0.015625 169.83 0.042969 254.76-0.03125 38.383 1.9648 77.383 15.391 105.11 42.777 21.082 20.84 33.789 49.438 36.832 78.77-0.058594 11.613 0.48438 23.258-0.32031 34.855-3.6445 24.895-13.426 49.965-32.164 67.391-5.2969 5.5508-11.051 10.707-17.785 14.453-1.3906 1.1719-4.3359 1.7578-3.4688 4.1328 21.547 8.7852 41.004 23.473 54.398 42.613 5.7539 7.8945 9.8945 16.797 13.879 25.688 7.918 17.879 9.3984 37.664 10.555 56.938-0.98047 14.906-1.875 29.945-5.4297 44.531-5.1836 25.422-18.402 48.984-36.863 67.113-7.5391 6.2266-15.152 12.465-23.613 17.414-23.863 14.613-51.633 21.367-79.129 24.996-7.668 1.3047-15.574 0.60156-23.145 2.6367h-270.77c-4.2148-2.4609-8.2969-6.3398-7.7578-11.688 0.03125-166.96 0.03125-333.93 0-500.89-0.17578-4.6133 2.5781-8.9492 6.457-11.289m90.707 76.266c-2.8125 0.66016-5.8711 1.6836-7.3789 4.3633-2.6211 3.707-1.875 8.4492-1.9766 12.711 0.13281 35.645 0.042969 71.289 0.027344 106.92-0.24609 4.6445 2.8438 8.6562 6.3828 11.305 10.527 0.92578 21.141 0.10547 31.711 0.36719 44.914-0.027343 89.812 0.058594 134.73-0.027343 15.066-1.6992 30.656-3.6641 43.875-11.688 13.617-6.1211 22.223-19.375 26.848-33.098 3.4844-11.098 2.2852-22.828 2.3438-34.266-0.99609-8.1133-3.5859-16.094-7.2773-23.387-10.555-18.117-30.887-28.102-51.062-31.047-7.9336-1.9922-16.176-0.35156-24.141-1.9922-6.0898-1.1836-12.297-0.59766-18.43-0.65625-43.449-0.046875-86.898 0.042969-130.34-0.058594-1.8008 0.011719-3.5703 0.1875-5.3125 0.55469m-2.9453 213.79c-4.3594 0.94922-6.5703 5.5508-6.3359 9.707-0.03125 42 0.027344 83.984-0.03125 125.97 0.058594 5.3477-0.52734 10.926 1.5508 16.008 1.043 3.5898 5.4336 4.4062 8.6836 4.4805 55.629 0.074219 111.27-0.058593 166.92 0.074219 7.3516 0.36719 14.539-1.5234 21.859-1.8594 18.75-2.3438 38.004-7.7461 52.465-20.488 11.406-11.496 16.984-27.59 18.215-43.492 1.4609-7.8789 1.8008-15.949 0.17578-23.828-1.4219-17.836-7.6562-36.875-22.445-48.016-17.887-13.812-41.078-17.004-62.918-19.055-55.633 0.015625-111.28 0.015625-166.91 0-3.7461 0.089843-7.5547-0.30859-11.23 0.5z"/>
<path d="m976.92 87.25c-2.6484-5.3594 2.5938-11.805 8.2891-11.145 27.344-0.015625 54.707 0.13281 82.066-0.058594 3.1797-0.16016 6.6914 0.29297 8.3906 3.3984 6.4844 9.957 11.727 20.691 16.938 31.367 3.293 6.8242 7.5078 13.152 10.805 19.977 6.0742 13.164 13.938 25.391 19.953 38.586 8.0508 13.691 14.418 28.277 22.473 41.957 6.9062 14.789 15.59 28.645 22.41 43.477 5.9297 10.371 11.316 21.016 16.691 31.691 6.8203 11.055 11.594 23.184 18.328 34.297 4.6992 8.1719 8.1836 16.973 13.043 25.055 6.1641 10.238 10.48 21.457 16.645 31.676 6.1055 10.254 10.25 21.559 16.82 31.531 2.9453 5.5352 12.578 5.5508 15.535 0 6.543-9.9883 10.699-21.277 16.805-31.531 5.4453-8.9609 9.2812-18.789 14.641-27.809 6.1484-10.25 10.48-21.453 16.645-31.703 6.0898-10.648 10.832-22.027 17.258-32.496 7.4961-15.715 16.543-30.605 23.938-46.363 6.0625-10.297 11.168-21.09 16.703-31.66 6.4727-10.441 10.949-21.938 17.289-32.438 5.4766-9.4023 9.4883-19.551 15.035-28.91 5.6211-9.2852 9.5469-19.461 15.18-28.746 7.5273-12.668 12.387-26.93 21.289-38.777 2.0195-3.1211 5.9844-2.418 9.1758-2.5938 26.863 0.25 53.742 0.046875 80.605 0.074219 3.6484-0.41016 6.7227 2.0234 8.4492 5.0547 1.7109 5.0508-1.9609 9.6484-4.2773 13.809-85.418 159.65-170.59 319.43-255.98 479.1-4.8906 9.1211-9.0195 19.035-16.586 26.344h-6.4414c-9.707-6.0781-12.973-17.926-18.52-27.324-86.562-161.92-172.94-323.98-259.59-485.84z"/>
</g>
</svg>
