<?xml version="1.0" encoding="UTF-8" standalone="no"?>
<!-- Created with Inkscape (http://www.inkscape.org/) -->

<svg
   xmlns:dc="http://purl.org/dc/elements/1.1/"
   xmlns:cc="http://creativecommons.org/ns#"
   xmlns:rdf="http://www.w3.org/1999/02/22-rdf-syntax-ns#"
   xmlns:svg="http://www.w3.org/2000/svg"
   xmlns="http://www.w3.org/2000/svg"
   xmlns:sodipodi="http://sodipodi.sourceforge.net/DTD/sodipodi-0.dtd"
   xmlns:inkscape="http://www.inkscape.org/namespaces/inkscape"
   id="svg2985"
   version="1.1"
   inkscape:version="0.48.5 r10040"
   width="1000"
   height="182.52005"
   xml:space="preserve"
   sodipodi:docname="A.svg"><metadata
     id="metadata2991"><rdf:RDF><cc:Work
         rdf:about=""><dc:format>image/svg+xml</dc:format><dc:type
           rdf:resource="http://purl.org/dc/dcmitype/StillImage" /><dc:title></dc:title></cc:Work></rdf:RDF></metadata><defs
     id="defs2989"><clipPath
       clipPathUnits="userSpaceOnUse"
       id="clipPath3001"><path
         d="m 100.99,0 307.201,0 0,198.429 -307.201,0 0,-198.429 z"
         id="path3003"
         inkscape:connector-curvature="0" /></clipPath><clipPath
       clipPathUnits="userSpaceOnUse"
       id="clipPath3013"><path
         d="m 0,198.43 408.19,0 L 408.19,0 0,0 0,198.43 z"
         id="path3015"
         inkscape:connector-curvature="0" /></clipPath><clipPath
       clipPathUnits="userSpaceOnUse"
       id="clipPath3057"><path
         d="m 0,198.43 408.19,0 L 408.19,0 0,0 0,198.43 z"
         id="path3059"
         inkscape:connector-curvature="0" /></clipPath><linearGradient
       x1="0"
       y1="0"
       x2="1"
       y2="0"
       gradientUnits="userSpaceOnUse"
       gradientTransform="matrix(12.65918,0,0,-12.65918,71.307129,19.357422)"
       spreadMethod="pad"
       id="linearGradient5613"><stop
         style="stop-opacity:1;stop-color:#27963c"
         offset="0"
         id="stop5615" /><stop
         style="stop-opacity:1;stop-color:#80cc28"
         offset="1"
         id="stop5617" /></linearGradient><clipPath
       clipPathUnits="userSpaceOnUse"
       id="clipPath5625"><path
         d="m 0,198.43 408.19,0 L 408.19,0 0,0 0,198.43 z"
         id="path5627"
         inkscape:connector-curvature="0" /></clipPath><clipPath
       clipPathUnits="userSpaceOnUse"
       id="clipPath5673"><path
         d="m 0,198.43 408.19,0 L 408.19,0 0,0 0,198.43 z"
         id="path5675"
         inkscape:connector-curvature="0" /></clipPath><clipPath
       clipPathUnits="userSpaceOnUse"
       id="clipPath5689"><path
         d="m 0,198.43 408.19,0 L 408.19,0 0,0 0,198.43 z"
         id="path5691"
         inkscape:connector-curvature="0" /></clipPath><clipPath
       clipPathUnits="userSpaceOnUse"
       id="clipPath8876"><path
         inkscape:connector-curvature="0"
         d="m 439.059,478.182 c 25.99,0 47.059,21.069 47.059,47.059 0,25.99 -21.069,47.059 -47.059,47.059 -25.99,0 -47.059,-21.069 -47.059,-47.059 0,-25.99 21.069,-47.059 47.059,-47.059"
         clip-rule="evenodd"
         id="path8878" /></clipPath><clipPath
       clipPathUnits="userSpaceOnUse"
       id="clipPath16962"><path
         inkscape:connector-curvature="0"
         d="m 1070.015,38.36 132.101,0 0,28.727 -132.101,0 0,-28.727 z"
         id="path16964" /></clipPath><clipPath
       clipPathUnits="userSpaceOnUse"
       id="clipPath17224"><path
         inkscape:connector-curvature="0"
         d="m 405.109,318.4 128.662,0 0,63.151 -128.662,0 0,-63.151 z"
         id="path17226" /></clipPath><clipPath
       clipPathUnits="userSpaceOnUse"
       id="clipPath17208"><path
         inkscape:connector-curvature="0"
         d="m 405.109,333.16 116.162,0 0,30.488 -116.162,0 0,-30.488 z"
         id="path17210" /></clipPath></defs><sodipodi:namedview
     pagecolor="#ffffff"
     bordercolor="#666666"
     borderopacity="1"
     objecttolerance="10"
     gridtolerance="10"
     guidetolerance="10"
     inkscape:pageopacity="0"
     inkscape:pageshadow="2"
     inkscape:window-width="1052"
     inkscape:window-height="1036"
     id="namedview2987"
     showgrid="false"
     fit-margin-left="0.5"
     fit-margin-bottom="0.5"
     fit-margin-top="0.5"
     fit-margin-right="0.5"
     inkscape:zoom="0.37811062"
     inkscape:cx="426.49329"
     inkscape:cy="-57.35904"
     inkscape:window-x="857"
     inkscape:window-y="-19"
     inkscape:window-maximized="0"
     inkscape:current-layer="g2993"
     showguides="true"
     inkscape:guide-bbox="true" /><g
     id="g2993"
     inkscape:groupmode="layer"
     inkscape:label="Blue-Inc-Q4-flexecash-artwork-2014"
     transform="matrix(1.25,0,0,-1.25,-1052.5822,942.53336)"><g
       transform="matrix(7.626893,0,0,7.626893,-2334.0124,-1965.8137)"
       id="g17204"><g
         id="g17206"
         clip-path="url(#clipPath17208)"><g
           id="g17212"
           transform="translate(496.8988,343.8674)"><path
             inkscape:connector-curvature="0"
             d="m 0,0 c 0,-0.56 -0.144,-1.002 -0.455,-1.303 -0.31,-0.298 -0.768,-0.442 -1.358,-0.442 l -0.004,0 c -0.598,0 -1.084,0.127 -1.425,0.372 -0.342,0.242 -0.531,0.614 -0.529,1.058 -0.004,0.455 0.163,0.847 0.596,1.091 0.428,0.241 1.092,0.356 2.114,0.358 L 0,1.134 0,0 z m -2.129,7.162 c -1.484,0 -2.458,-0.399 -3.139,-0.934 l 0,-1.713 c 0.692,0.328 1.561,0.6 2.742,0.6 0.801,-0.001 1.497,-0.113 1.909,-0.439 0.414,-0.327 0.598,-0.858 0.597,-1.62 l 0,-0.247 -1.041,0 c -3.912,-0.015 -5.203,-1.4 -5.21,-3.224 0.002,-1.878 1.674,-3.26 4.176,-3.264 l 0.537,0 c 2.331,0.005 3.932,1.508 3.937,3.697 l 0,2.446 c 0,3.727 -2.16,4.682 -4.508,4.698 m -9.841,-8.768 -0.006,0 c -0.796,0 -1.518,0.235 -1.99,0.819 -0.474,0.585 -0.699,1.502 -0.699,2.737 0.004,1.695 1.022,3.083 2.423,3.085 0.814,10e-4 1.484,-0.224 1.934,-0.798 0.453,-0.569 0.681,-1.457 0.681,-2.76 -10e-4,-1.749 -0.962,-3.081 -2.343,-3.083 m 0.233,8.769 c -1.373,0 -2.233,-0.816 -2.75,-1.57 l -0.197,-0.288 0.007,4.53 -2.422,0 0,-8.261 c 0,-3.511 2.112,-5.253 4.857,-5.253 3.125,0 5.099,2.463 5.104,5.609 -0.005,3.086 -1.998,5.232 -4.599,5.233 m 20.346,0 C 5.333,7.159 3.905,4.92 3.898,2.72 l 0.014,-6.218 2.426,0 0,6.038 c 0,0.778 0.203,1.402 0.565,1.834 0.362,0.431 0.885,0.662 1.488,0.661 0.704,10e-4 1.283,-0.204 1.676,-0.656 0.396,-0.449 0.596,-1.124 0.596,-2.034 l 0.006,-5.843 2.434,0 0,6.078 C 13.097,5.541 11.081,7.158 8.609,7.163 m -46.367,2.672 -2.427,0 0.008,-9.62 c 0.012,-2.442 1.242,-3.881 3.897,-3.894 1.127,10e-4 1.805,0.367 2.084,0.954 l 0,1.516 c -0.438,-0.194 -1.031,-0.28 -1.767,-0.28 -0.551,0 -1.01,0.139 -1.325,0.474 -0.314,0.335 -0.47,0.841 -0.47,1.547 l 0,4.502 2.128,0 c 1.039,0.002 1.475,0.664 1.477,1.154 l 0,0.975 -3.605,0 0,2.672 z M -46.563,7.163 C -49.838,7.159 -51.266,4.92 -51.274,2.72 l 0,-6.218 2.44,0 0,6.039 c 0,0.777 0.203,1.401 0.566,1.833 0.363,0.431 0.884,0.662 1.488,0.661 0.704,10e-4 1.282,-0.204 1.677,-0.654 0.393,-0.451 0.593,-1.126 0.593,-2.035 l 0.003,-5.844 2.437,0 0,6.077 c -0.006,2.961 -2.023,4.579 -4.493,4.584 m -9.071,-10.661 2.453,0 0,13.333 -2.453,0 0,-13.333 z m 32.325,6.619 0.001,-6.619 2.458,0 0,6.144 c 0.001,0.823 0.165,1.416 0.502,1.811 0.338,0.395 0.839,0.566 1.453,0.565 0.249,0 0.471,-0.021 0.668,-0.056 l 0,1.948 c -0.309,0.155 -0.714,0.256 -1.244,0.256 -2.753,-0.005 -3.828,-1.956 -3.838,-4.049 m -4.244,-0.549 c -0.485,-0.17 -1.265,-0.236 -2.53,-0.238 l -1.305,0 0.007,0.115 0.019,0.356 c 0.059,1.267 0.997,2.369 2.352,2.369 0.63,0 1.159,-0.138 1.539,-0.422 0.38,-0.284 0.595,-0.726 0.593,-1.281 0.011,-0.406 -0.185,-0.735 -0.675,-0.899 m -1.22,4.591 c -2.996,-0.004 -5.121,-2.162 -5.129,-5.666 0,-3.189 2.547,-5.174 5.149,-5.176 1.548,0 2.512,0.24 3.071,0.698 l 0,1.774 c -0.797,-0.393 -1.74,-0.518 -2.576,-0.518 -1.603,-0.003 -2.894,0.874 -3.104,2.279 l -0.017,0.125 1.872,0 c 1.761,-0.001 3.003,0.16 3.785,0.548 0.779,0.391 1.119,0.977 1.123,1.927 0,2.476 -2.001,4.007 -4.174,4.009"
             style="fill:#0fab4b;fill-opacity:1;fill-rule:nonzero;stroke:none"
             id="path17214" /></g><g
           id="g17216"
           transform="translate(516.9698,345.9034)"><path
             inkscape:connector-curvature="0"
             d="m 0,0 -0.057,0.069 0.056,0.067 c 1.07,1.345 3.383,3.964 4.253,4.75 l -1.349,0 C 2.054,4.884 1.467,4.793 0.854,4.227 -0.366,3.072 -1.376,1.719 -2.407,0.377 l -0.197,-0.256 0.011,7.679 -2.47,0 0.002,-13.312 2.457,-0.006 0,5.4 0.198,-0.262 c 1.17,-1.556 2.357,-3.128 3.719,-4.521 C 1.745,-5.33 2.42,-5.6 2.983,-5.597 3.658,-5.595 4.041,-5.425 4.31,-5.103 3.632,-4.292 0.83,-1.015 0,0"
             style="fill:#0fab4b;fill-opacity:1;fill-rule:nonzero;stroke:none"
             id="path17218" /></g></g></g><g
       transform="matrix(7.626893,0,0,7.626893,-2334.0124,-1965.8137)"
       id="g17220"><g
         id="g17222"
         clip-path="url(#clipPath17224)"><g
           id="g17228"
           transform="translate(431.0789,342.8174)"><path
             inkscape:connector-curvature="0"
             d="m 0,0 -10.149,-1.834 0,10.243 L 0,10.243 0,0 z m -12.054,13.742 c -1.404,0 -2.541,-1.144 -2.541,-2.555 l 0,-16.485 16.499,0 c 1.405,0 2.544,1.144 2.544,2.556 l 0.002,16.484 -16.504,0 z"
             style="fill:#1a5dad;fill-opacity:1;fill-rule:evenodd;stroke:none"
             id="path17230" /></g></g></g></g></svg>