<?xml version="1.0" encoding="UTF-8"?>
<!-- Generator: Adobe Illustrator 12.0.0, SVG Export Plug-In . SVG Version: 6.00 Build 51448)  -->
<!DOCTYPE svg PUBLIC "-//W3C//DTD SVG 1.1//EN" "http://www.w3.org/Graphics/SVG/1.1/DTD/svg11.dtd" [
	<!ENTITY ns_svg "http://www.w3.org/2000/svg">
	<!ENTITY ns_xlink "http://www.w3.org/1999/xlink">
]>
<svg version="1.1" id="Layer_1" xmlns="http://www.w3.org/2000/svg" xmlns:xlink="http://www.w3.org/1999/xlink" width="230" height="57" viewBox="0 0 230 57" overflow="visible" enable-background="new 0 0 230 57" xml:space="preserve">
<g>
	<path fill="#EE3224" d="M95.221,35.805c2.159,0,3.428-1.893,3.428-4.146c0-2.284-1.208-4.175-3.428-4.175   c-2.314,0-3.424,1.891-3.424,4.175C91.797,33.912,93.07,35.805,95.221,35.805 M95.221,39.624c-5.169,0-8.871-3.105-8.871-7.965   c0-4.8,3.835-7.995,8.871-7.995c5.037,0,8.874,3.175,8.874,7.995C104.095,36.519,100.362,39.624,95.221,39.624z"/>
	<path fill="#EE3224" d="M158.874,31.663c0-2.04-1.163-3.854-3.191-3.854c-1.784,0-3.222,1.525-3.222,3.854   c0,2.26,1.177,3.868,3.222,3.868C157.527,35.531,158.874,33.998,158.874,31.663 M147.242,39.298V17.771h5.301v7.377h0.06   c0.373-0.234,2.087-1.466,4.608-1.466c4.128,0,7.162,3.319,7.162,7.709c0,5.486-3.364,8.248-7.195,8.248   c-2.897,0-4.369-1.349-4.731-1.739h-0.083l-0.077,1.398H147.242z"/>
	<path fill="#EE3224" d="M121.42,16.322c-1.637,0-2.982,1.346-2.982,2.981c0,1.638,1.346,2.983,2.982,2.983   c1.638,0,2.982-1.345,2.982-2.983C124.402,17.668,123.058,16.322,121.42,16.322 M118.759,24.053h5.322v15.28h-5.322V24.053z"/>
	<path fill="#EE3224" d="M187.067,39.311h5.165v-7.886c0-1.849,1.226-3.113,2.791-3.113c1.79,0,2.806,1.164,2.806,3.113v7.886h5.167   v-9.192c0-3.459-2.228-6.421-6.314-6.421c-2.731,0-4.15,1.483-4.799,2.067h-0.109l-0.052-1.691h-4.654V39.311"/>
	<polyline fill="#EE3224" points="206.26,39.313 211.555,39.313 211.555,32.244 211.611,32.244 216.316,39.313 222.21,39.313 216.532,31.221 222.064,24.065 216.178,24.065 211.611,30.359 211.555,30.359 211.555,17.789 206.26,17.789 206.26,39.313"/>
	<path fill="#EE3224" d="M84.998,24.278c-0.399-0.11-1.856-0.611-3.789-0.611c-4.785,0-8.371,2.995-8.371,7.981   c0,4.533,3.221,7.979,8.157,7.979c2.102,0,3.65-0.561,4.003-0.665l-0.259-4.452c-0.41,0.186-1.468,0.79-2.689,0.79   c-2.143,0-3.708-1.517-3.708-3.652c0-2.241,1.675-3.686,3.77-3.686c1.181,0,2.234,0.549,2.628,0.744L84.998,24.278"/>
	<path fill="#EE3224" d="M132.081,31.523c0,2.524,1.41,4.102,3.234,4.102c1.653,0,3.264-1.548,3.264-3.895   c0-2.365-1.428-3.984-3.264-3.984C133.416,27.747,132.081,29.442,132.081,31.523 M143.815,24.044v15.266h-5.157l-0.077-1.539   h-0.112c-0.572,0.516-1.763,1.876-5.09,1.876c-3.688,0-6.919-3.206-6.919-7.984c0-4.432,2.865-7.973,7.26-7.973   c2.989,0,4.21,1.317,4.667,1.735h0.138l0.052-1.381H143.815z"/>
	<path fill="#EE3224" d="M171.896,31.514c0,2.525,1.409,4.104,3.234,4.104c1.652,0,3.264-1.549,3.264-3.896   c0-2.365-1.429-3.983-3.264-3.983C173.229,27.739,171.896,29.434,171.896,31.514 M183.631,24.037v15.267h-5.159l-0.077-1.541h-0.11   c-0.572,0.516-1.765,1.879-5.09,1.879c-3.689,0-6.92-3.208-6.92-7.985c0-4.435,2.865-7.975,7.26-7.975   c2.99,0,4.209,1.318,4.668,1.736h0.137l0.052-1.381H183.631z"/>
	<path fill="#EE3224" d="M55.793,38.745c1.484,0.449,3.741,0.861,6.134,0.861c4.532,0,9.053-1.605,9.053-6.58   c0-6.83-9.415-5.884-9.415-8.606c0-1.392,1.447-1.693,2.865-1.693c1.968,0,4.458,0.945,5.011,1.169l0.427-4.704   c-1.374-0.467-3.458-0.734-5.418-0.734c-4.475,0-8.888,1.749-8.888,6.18c0,6.709,9.389,5.311,9.389,8.83   c0,1.355-1.35,1.869-3.076,1.869c-2.37,0-4.599-1.186-5.563-1.614L55.793,38.745"/>
	<path fill="#EE3224" d="M116.184,35.149c-0.262,0.072-0.978,0.256-1.47,0.256c-1.076,0-2.252-0.504-2.252-2.368v-5.161h3.337   v-3.837h-3.337v-4.917h-5.312v4.917h-2.322v3.837h2.322v6.038c0,3.322,1.542,5.702,5.471,5.702c1.141,0,2.188-0.152,2.907-0.289   L116.184,35.149"/>
	<path fill="#EE3224" d="M37.048,29.075c0.134,6.593-5.825,11.571-10.805,11.571h-12.31L6.21,48.34h19.899   c6.353,0,12.447-5.715,12.447-12.538c0-2.004-0.242-4.614-1.507-6.593V29.075 M34.936,33.932c0.768-1.372,1.145-2.88,1.238-4.347   h-5.585c0,1.36-0.227,2.84-0.738,4.347H34.936z M29.487,34.794c-0.634,1.613-2.14,3.711-3.605,4.856c2.837,0,6.08-1.238,8.45-4.856   H29.487z M28.853,33.932c0.499-1.372,0.727-2.88,0.862-4.347h-8.45c0.135,1.467,0.363,2.975,0.861,4.347H28.853z M21.159,33.932   c-0.498-1.507-0.768-2.986-0.768-4.347h-5.583c0.134,1.467,0.498,2.975,1.236,4.347H21.159z M25.504,38.776   c1.103-0.997,2.341-2.61,2.973-3.982h-5.974C23.137,36.166,24.374,37.779,25.504,38.776z M16.543,34.794   c2.475,3.618,5.717,4.856,8.598,4.856c-1.509-1.146-3.108-3.243-3.621-4.856H16.543z M29.851,24.365   c0.511,1.332,0.738,2.839,0.738,4.345h5.585c-0.093-1.506-0.471-3.013-1.238-4.345H29.851z M34.332,23.355   c-2.37-3.471-5.612-4.843-8.45-4.843c1.465,1.104,2.971,3.203,3.605,4.843H34.332z M22.126,24.365   c-0.498,1.332-0.726,2.839-0.861,4.345h8.45c-0.135-1.506-0.364-3.013-0.862-4.345H22.126z M16.045,24.365   c-0.738,1.332-1.103,2.839-1.236,4.345h5.583c0-1.506,0.27-3.013,0.768-4.345H16.045z M25.504,19.48   c-1.13,0.997-2.367,2.503-3,3.875h5.974C27.845,21.983,26.607,20.477,25.504,19.48z M21.521,23.355   c0.513-1.641,2.112-3.74,3.621-4.843c-2.881,0-6.124,1.372-8.598,4.843H21.521z M13.933,28.939   c-1.237-1.964-1.508-4.574-1.508-6.579c0-6.823,6.096-12.58,12.445-12.58h19.902l-7.724,7.789H24.737   C19.787,17.569,13.797,22.589,13.933,28.939z"/>
</g>
</svg>